<?xml version="1.0" encoding="utf-8" standalone="no"?>
<!DOCTYPE svg PUBLIC "-//W3C//DTD SVG 1.1//EN"
  "http://www.w3.org/Graphics/SVG/1.1/DTD/svg11.dtd">
<svg xmlns:xlink="http://www.w3.org/1999/xlink" width="576pt" height="432pt" viewBox="0 0 576 432" xmlns="http://www.w3.org/2000/svg" version="1.1">
 <metadata>
  <rdf:RDF xmlns:dc="http://purl.org/dc/elements/1.1/" xmlns:cc="http://creativecommons.org/ns#" xmlns:rdf="http://www.w3.org/1999/02/22-rdf-syntax-ns#">
   <cc:Work>
    <dc:type rdf:resource="http://purl.org/dc/dcmitype/StillImage"/>
    <dc:date>2026-01-07T00:14:20.809279</dc:date>
    <dc:format>image/svg+xml</dc:format>
    <dc:creator>
     <cc:Agent>
      <dc:title>Matplotlib v3.9.3, https://matplotlib.org/</dc:title>
     </cc:Agent>
    </dc:creator>
   </cc:Work>
  </rdf:RDF>
 </metadata>
 <defs>
  <style type="text/css">*{stroke-linejoin: round; stroke-linecap: butt}</style>
 </defs>
 <g id="figure_1">
  <g id="patch_1">
   <path d="M 0 432 
L 576 432 
L 576 0 
L 0 0 
z
" style="fill: #ffffff"/>
  </g>
  <g id="axes_1">
   <g id="patch_2">
    <path d="M 70.55 361.578062 
L 565.2 361.578062 
L 565.2 10.8 
L 70.55 10.8 
z
" style="fill: #ebebeb"/>
   </g>
   <g id="matplotlib.axis_1">
    <g id="xtick_1">
     <g id="line2d_1">
      <path d="M 88.833629 361.578062 
L 88.833629 10.8 
" clip-path="url(#p8c6d6c8d20)" style="fill: none; stroke: #ffffff; stroke-width: 1.5; stroke-linecap: square"/>
     </g>
     <g id="line2d_2">
      <defs>
       <path id="me2bcc4c12e" d="M 0 0 
L 0 5 
" style="stroke: #000000; stroke-width: 1.2"/>
      </defs>
      <g>
       <use xlink:href="#me2bcc4c12e" x="88.833629" y="361.578062" style="stroke: #000000; stroke-width: 1.2"/>
      </g>
     </g>
     <g id="text_1">
      <!-- 0 -->
      <g transform="translate(84.333629 382.576812) scale(0.18 -0.18)">
       <defs>
        <path id="TimesNewRomanPSMT-30" d="M 231 2094 
Q 231 2819 450 3342 
Q 669 3866 1031 4122 
Q 1313 4325 1613 4325 
Q 2100 4325 2488 3828 
Q 2972 3213 2972 2159 
Q 2972 1422 2759 906 
Q 2547 391 2217 158 
Q 1888 -75 1581 -75 
Q 975 -75 572 641 
Q 231 1244 231 2094 
z
M 844 2016 
Q 844 1141 1059 588 
Q 1238 122 1591 122 
Q 1759 122 1940 273 
Q 2122 425 2216 781 
Q 2359 1319 2359 2297 
Q 2359 3022 2209 3506 
Q 2097 3866 1919 4016 
Q 1791 4119 1609 4119 
Q 1397 4119 1231 3928 
Q 1006 3669 925 3112 
Q 844 2556 844 2016 
z
" transform="scale(0.015625)"/>
       </defs>
       <use xlink:href="#TimesNewRomanPSMT-30"/>
      </g>
     </g>
    </g>
    <g id="xtick_2">
     <g id="line2d_3">
      <path d="M 223.031411 361.578062 
L 223.031411 10.8 
" clip-path="url(#p8c6d6c8d20)" style="fill: none; stroke: #ffffff; stroke-width: 1.5; stroke-linecap: square"/>
     </g>
     <g id="line2d_4">
      <g>
       <use xlink:href="#me2bcc4c12e" x="223.031411" y="361.578062" style="stroke: #000000; stroke-width: 1.2"/>
      </g>
     </g>
     <g id="text_2">
      <!-- 60 -->
      <g transform="translate(214.031411 382.576812) scale(0.18 -0.18)">
       <defs>
        <path id="TimesNewRomanPSMT-36" d="M 2869 4325 
L 2869 4209 
Q 2456 4169 2195 4045 
Q 1934 3922 1679 3669 
Q 1425 3416 1258 3105 
Q 1091 2794 978 2366 
Q 1428 2675 1881 2675 
Q 2316 2675 2634 2325 
Q 2953 1975 2953 1425 
Q 2953 894 2631 456 
Q 2244 -75 1606 -75 
Q 1172 -75 869 213 
Q 275 772 275 1663 
Q 275 2231 503 2743 
Q 731 3256 1154 3653 
Q 1578 4050 1965 4187 
Q 2353 4325 2688 4325 
L 2869 4325 
z
M 925 2138 
Q 869 1716 869 1456 
Q 869 1156 980 804 
Q 1091 453 1309 247 
Q 1469 100 1697 100 
Q 1969 100 2183 356 
Q 2397 613 2397 1088 
Q 2397 1622 2184 2012 
Q 1972 2403 1581 2403 
Q 1463 2403 1327 2353 
Q 1191 2303 925 2138 
z
" transform="scale(0.015625)"/>
       </defs>
       <use xlink:href="#TimesNewRomanPSMT-36"/>
       <use xlink:href="#TimesNewRomanPSMT-30" x="50"/>
      </g>
     </g>
    </g>
    <g id="xtick_3">
     <g id="line2d_5">
      <path d="M 357.229192 361.578062 
L 357.229192 10.8 
" clip-path="url(#p8c6d6c8d20)" style="fill: none; stroke: #ffffff; stroke-width: 1.5; stroke-linecap: square"/>
     </g>
     <g id="line2d_6">
      <g>
       <use xlink:href="#me2bcc4c12e" x="357.229192" y="361.578062" style="stroke: #000000; stroke-width: 1.2"/>
      </g>
     </g>
     <g id="text_3">
      <!-- 120 -->
      <g transform="translate(343.729192 382.576812) scale(0.18 -0.18)">
       <defs>
        <path id="TimesNewRomanPSMT-31" d="M 750 3822 
L 1781 4325 
L 1884 4325 
L 1884 747 
Q 1884 391 1914 303 
Q 1944 216 2037 169 
Q 2131 122 2419 116 
L 2419 0 
L 825 0 
L 825 116 
Q 1125 122 1212 167 
Q 1300 213 1334 289 
Q 1369 366 1369 747 
L 1369 3034 
Q 1369 3497 1338 3628 
Q 1316 3728 1258 3775 
Q 1200 3822 1119 3822 
Q 1003 3822 797 3725 
L 750 3822 
z
" transform="scale(0.015625)"/>
        <path id="TimesNewRomanPSMT-32" d="M 2934 816 
L 2638 0 
L 138 0 
L 138 116 
Q 1241 1122 1691 1759 
Q 2141 2397 2141 2925 
Q 2141 3328 1894 3587 
Q 1647 3847 1303 3847 
Q 991 3847 742 3664 
Q 494 3481 375 3128 
L 259 3128 
Q 338 3706 661 4015 
Q 984 4325 1469 4325 
Q 1984 4325 2329 3994 
Q 2675 3663 2675 3213 
Q 2675 2891 2525 2569 
Q 2294 2063 1775 1497 
Q 997 647 803 472 
L 1909 472 
Q 2247 472 2383 497 
Q 2519 522 2628 598 
Q 2738 675 2819 816 
L 2934 816 
z
" transform="scale(0.015625)"/>
       </defs>
       <use xlink:href="#TimesNewRomanPSMT-31"/>
       <use xlink:href="#TimesNewRomanPSMT-32" x="50"/>
       <use xlink:href="#TimesNewRomanPSMT-30" x="100"/>
      </g>
     </g>
    </g>
    <g id="xtick_4">
     <g id="line2d_7">
      <path d="M 491.426973 361.578062 
L 491.426973 10.8 
" clip-path="url(#p8c6d6c8d20)" style="fill: none; stroke: #ffffff; stroke-width: 1.5; stroke-linecap: square"/>
     </g>
     <g id="line2d_8">
      <g>
       <use xlink:href="#me2bcc4c12e" x="491.426973" y="361.578062" style="stroke: #000000; stroke-width: 1.2"/>
      </g>
     </g>
     <g id="text_4">
      <!-- 180 -->
      <g transform="translate(477.926973 382.576812) scale(0.18 -0.18)">
       <defs>
        <path id="TimesNewRomanPSMT-38" d="M 1228 2134 
Q 725 2547 579 2797 
Q 434 3047 434 3316 
Q 434 3728 753 4026 
Q 1072 4325 1600 4325 
Q 2113 4325 2425 4047 
Q 2738 3769 2738 3413 
Q 2738 3175 2569 2928 
Q 2400 2681 1866 2347 
Q 2416 1922 2594 1678 
Q 2831 1359 2831 1006 
Q 2831 559 2490 242 
Q 2150 -75 1597 -75 
Q 994 -75 656 303 
Q 388 606 388 966 
Q 388 1247 577 1523 
Q 766 1800 1228 2134 
z
M 1719 2469 
Q 2094 2806 2194 3001 
Q 2294 3197 2294 3444 
Q 2294 3772 2109 3958 
Q 1925 4144 1606 4144 
Q 1288 4144 1088 3959 
Q 888 3775 888 3528 
Q 888 3366 970 3203 
Q 1053 3041 1206 2894 
L 1719 2469 
z
M 1375 2016 
Q 1116 1797 991 1539 
Q 866 1281 866 981 
Q 866 578 1086 336 
Q 1306 94 1647 94 
Q 1984 94 2187 284 
Q 2391 475 2391 747 
Q 2391 972 2272 1150 
Q 2050 1481 1375 2016 
z
" transform="scale(0.015625)"/>
       </defs>
       <use xlink:href="#TimesNewRomanPSMT-31"/>
       <use xlink:href="#TimesNewRomanPSMT-38" x="50"/>
       <use xlink:href="#TimesNewRomanPSMT-30" x="100"/>
      </g>
     </g>
    </g>
    <g id="text_5">
     <!-- Time (×$10^{3}$ ms) -->
     <g transform="translate(245.385 413.661187) scale(0.22 -0.22)">
      <defs>
       <path id="TimesNewRomanPS-BoldMT-54" d="M 4038 4238 
L 4038 3091 
L 3925 3091 
Q 3825 3488 3703 3661 
Q 3581 3834 3369 3938 
Q 3250 3994 2953 3994 
L 2638 3994 
L 2638 725 
Q 2638 400 2673 319 
Q 2709 238 2814 177 
Q 2919 116 3100 116 
L 3241 116 
L 3241 0 
L 1022 0 
L 1022 116 
L 1163 116 
Q 1347 116 1459 181 
Q 1541 225 1588 331 
Q 1622 406 1622 725 
L 1622 3994 
L 1316 3994 
Q 888 3994 694 3813 
Q 422 3559 350 3091 
L 231 3091 
L 231 4238 
L 4038 4238 
z
" transform="scale(0.015625)"/>
       <path id="TimesNewRomanPS-BoldMT-69" d="M 919 4338 
Q 1122 4338 1262 4195 
Q 1403 4053 1403 3853 
Q 1403 3653 1261 3512 
Q 1119 3372 919 3372 
Q 719 3372 578 3512 
Q 438 3653 438 3853 
Q 438 4053 578 4195 
Q 719 4338 919 4338 
z
M 1356 2922 
L 1356 606 
Q 1356 297 1428 211 
Q 1500 125 1709 113 
L 1709 0 
L 131 0 
L 131 113 
Q 325 119 419 225 
Q 481 297 481 606 
L 481 2313 
Q 481 2622 409 2708 
Q 338 2794 131 2806 
L 131 2922 
L 1356 2922 
z
" transform="scale(0.015625)"/>
       <path id="TimesNewRomanPS-BoldMT-6d" d="M 1428 2922 
L 1428 2538 
Q 1669 2800 1873 2904 
Q 2078 3009 2322 3009 
Q 2603 3009 2793 2878 
Q 2984 2747 3088 2478 
Q 3338 2759 3567 2884 
Q 3797 3009 4047 3009 
Q 4350 3009 4529 2870 
Q 4709 2731 4779 2517 
Q 4850 2303 4850 1834 
L 4850 638 
Q 4850 300 4911 219 
Q 4972 138 5166 113 
L 5166 0 
L 3656 0 
L 3656 113 
Q 3834 128 3919 250 
Q 3975 334 3975 638 
L 3975 1894 
Q 3975 2284 3944 2390 
Q 3913 2497 3845 2548 
Q 3778 2600 3688 2600 
Q 3553 2600 3415 2501 
Q 3278 2403 3138 2206 
L 3138 638 
Q 3138 322 3191 241 
Q 3263 125 3466 113 
L 3466 0 
L 1953 0 
L 1953 113 
Q 2075 119 2145 173 
Q 2216 228 2239 304 
Q 2263 381 2263 638 
L 2263 1894 
Q 2263 2291 2231 2391 
Q 2200 2491 2126 2547 
Q 2053 2603 1969 2603 
Q 1844 2603 1741 2538 
Q 1594 2441 1428 2206 
L 1428 638 
Q 1428 328 1489 229 
Q 1550 131 1744 113 
L 1744 0 
L 238 0 
L 238 113 
Q 422 131 500 231 
Q 553 300 553 638 
L 553 2288 
Q 553 2619 492 2700 
Q 431 2781 238 2806 
L 238 2922 
L 1428 2922 
z
" transform="scale(0.015625)"/>
       <path id="TimesNewRomanPS-BoldMT-65" d="M 2691 1566 
L 1088 1566 
Q 1116 984 1397 647 
Q 1613 388 1916 388 
Q 2103 388 2256 492 
Q 2409 597 2584 869 
L 2691 800 
Q 2453 316 2165 114 
Q 1878 -88 1500 -88 
Q 850 -88 516 413 
Q 247 816 247 1413 
Q 247 2144 642 2576 
Q 1038 3009 1569 3009 
Q 2013 3009 2339 2645 
Q 2666 2281 2691 1566 
z
M 1922 1775 
Q 1922 2278 1867 2465 
Q 1813 2653 1697 2750 
Q 1631 2806 1522 2806 
Q 1359 2806 1256 2647 
Q 1072 2369 1072 1884 
L 1072 1775 
L 1922 1775 
z
" transform="scale(0.015625)"/>
       <path id="TimesNewRomanPS-BoldMT-20" transform="scale(0.015625)"/>
       <path id="TimesNewRomanPS-BoldMT-28" d="M 2056 4334 
L 2056 4191 
Q 1731 3978 1578 3775 
Q 1366 3494 1247 3053 
Q 1097 2506 1097 1525 
Q 1097 600 1233 87 
Q 1369 -425 1603 -741 
Q 1766 -959 2056 -1125 
L 2056 -1281 
Q 1303 -1028 779 -248 
Q 256 531 256 1544 
Q 256 2544 778 3314 
Q 1300 4084 2056 4334 
z
" transform="scale(0.015625)"/>
       <path id="TimesNewRomanPS-BoldMT-d7" d="M 772 3475 
L 1834 2413 
L 2897 3472 
L 3184 3184 
L 2125 2122 
L 3188 1059 
L 2897 769 
L 1834 1831 
L 778 778 
L 491 1066 
L 1544 2119 
L 481 3184 
L 772 3475 
z
" transform="scale(0.015625)"/>
       <path id="TimesNewRomanPSMT-33" d="M 325 3431 
Q 506 3859 782 4092 
Q 1059 4325 1472 4325 
Q 1981 4325 2253 3994 
Q 2459 3747 2459 3466 
Q 2459 3003 1878 2509 
Q 2269 2356 2469 2072 
Q 2669 1788 2669 1403 
Q 2669 853 2319 450 
Q 1863 -75 997 -75 
Q 569 -75 414 31 
Q 259 138 259 259 
Q 259 350 332 419 
Q 406 488 509 488 
Q 588 488 669 463 
Q 722 447 909 348 
Q 1097 250 1169 231 
Q 1284 197 1416 197 
Q 1734 197 1970 444 
Q 2206 691 2206 1028 
Q 2206 1275 2097 1509 
Q 2016 1684 1919 1775 
Q 1784 1900 1550 2001 
Q 1316 2103 1072 2103 
L 972 2103 
L 972 2197 
Q 1219 2228 1467 2375 
Q 1716 2522 1828 2728 
Q 1941 2934 1941 3181 
Q 1941 3503 1739 3701 
Q 1538 3900 1238 3900 
Q 753 3900 428 3381 
L 325 3431 
z
" transform="scale(0.015625)"/>
       <path id="TimesNewRomanPS-BoldMT-73" d="M 2063 3003 
L 2109 2006 
L 2003 2006 
Q 1813 2450 1608 2612 
Q 1403 2775 1200 2775 
Q 1072 2775 981 2689 
Q 891 2603 891 2491 
Q 891 2406 953 2328 
Q 1053 2200 1512 1889 
Q 1972 1578 2117 1361 
Q 2263 1144 2263 875 
Q 2263 631 2141 397 
Q 2019 163 1797 37 
Q 1575 -88 1306 -88 
Q 1097 -88 747 44 
Q 653 78 619 78 
Q 516 78 447 -78 
L 344 -78 
L 294 972 
L 400 972 
Q 541 559 786 353 
Q 1031 147 1250 147 
Q 1400 147 1495 239 
Q 1591 331 1591 463 
Q 1591 613 1497 722 
Q 1403 831 1078 1053 
Q 600 1384 459 1559 
Q 253 1816 253 2125 
Q 253 2463 486 2736 
Q 719 3009 1159 3009 
Q 1397 3009 1619 2894 
Q 1703 2847 1756 2847 
Q 1813 2847 1847 2870 
Q 1881 2894 1956 3003 
L 2063 3003 
z
" transform="scale(0.015625)"/>
       <path id="TimesNewRomanPS-BoldMT-29" d="M 78 -1281 
L 78 -1138 
Q 403 -922 556 -719 
Q 766 -438 888 0 
Q 1038 550 1038 1531 
Q 1038 2456 902 2967 
Q 766 3478 531 3794 
Q 369 4013 78 4178 
L 78 4334 
Q 831 4081 1354 3301 
Q 1878 2522 1878 1509 
Q 1878 513 1354 -257 
Q 831 -1028 78 -1281 
z
" transform="scale(0.015625)"/>
      </defs>
      <use xlink:href="#TimesNewRomanPS-BoldMT-54" transform="translate(0 0.879688)"/>
      <use xlink:href="#TimesNewRomanPS-BoldMT-69" transform="translate(66.699219 0.879688)"/>
      <use xlink:href="#TimesNewRomanPS-BoldMT-6d" transform="translate(94.482422 0.879688)"/>
      <use xlink:href="#TimesNewRomanPS-BoldMT-65" transform="translate(177.783203 0.879688)"/>
      <use xlink:href="#TimesNewRomanPS-BoldMT-20" transform="translate(222.167969 0.879688)"/>
      <use xlink:href="#TimesNewRomanPS-BoldMT-28" transform="translate(247.167969 0.879688)"/>
      <use xlink:href="#TimesNewRomanPS-BoldMT-d7" transform="translate(280.46875 0.879688)"/>
      <use xlink:href="#TimesNewRomanPSMT-31" transform="translate(337.451172 0.879688)"/>
      <use xlink:href="#TimesNewRomanPSMT-30" transform="translate(387.451172 0.879688)"/>
      <use xlink:href="#TimesNewRomanPSMT-33" transform="translate(438.896563 58.695312) scale(0.7)"/>
      <use xlink:href="#TimesNewRomanPS-BoldMT-20" transform="translate(478.02625 0.879688)"/>
      <use xlink:href="#TimesNewRomanPS-BoldMT-6d" transform="translate(503.02625 0.879688)"/>
      <use xlink:href="#TimesNewRomanPS-BoldMT-73" transform="translate(586.327031 0.879688)"/>
      <use xlink:href="#TimesNewRomanPS-BoldMT-29" transform="translate(625.243047 0.879688)"/>
     </g>
    </g>
   </g>
   <g id="matplotlib.axis_2">
    <g id="ytick_1">
     <g id="line2d_9">
      <path d="M 70.55 350.793624 
L 565.2 350.793624 
" clip-path="url(#p8c6d6c8d20)" style="fill: none; stroke: #ffffff; stroke-width: 1.5; stroke-linecap: square"/>
     </g>
     <g id="line2d_10">
      <defs>
       <path id="ma5a0672dde" d="M 0 0 
L -5 0 
" style="stroke: #000000; stroke-width: 1.2"/>
      </defs>
      <g>
       <use xlink:href="#ma5a0672dde" x="70.55" y="350.793624" style="stroke: #000000; stroke-width: 1.2"/>
      </g>
     </g>
     <g id="text_6">
      <!-- 0 -->
      <g transform="translate(53.05 357.042999) scale(0.18 -0.18)">
       <use xlink:href="#TimesNewRomanPSMT-30"/>
      </g>
     </g>
    </g>
    <g id="ytick_2">
     <g id="line2d_11">
      <path d="M 70.55 247.593252 
L 565.2 247.593252 
" clip-path="url(#p8c6d6c8d20)" style="fill: none; stroke: #ffffff; stroke-width: 1.5; stroke-linecap: square"/>
     </g>
     <g id="line2d_12">
      <g>
       <use xlink:href="#ma5a0672dde" x="70.55" y="247.593252" style="stroke: #000000; stroke-width: 1.2"/>
      </g>
     </g>
     <g id="text_7">
      <!-- 300 -->
      <g transform="translate(35.05 253.842627) scale(0.18 -0.18)">
       <use xlink:href="#TimesNewRomanPSMT-33"/>
       <use xlink:href="#TimesNewRomanPSMT-30" x="50"/>
       <use xlink:href="#TimesNewRomanPSMT-30" x="100"/>
      </g>
     </g>
    </g>
    <g id="ytick_3">
     <g id="line2d_13">
      <path d="M 70.55 144.392881 
L 565.2 144.392881 
" clip-path="url(#p8c6d6c8d20)" style="fill: none; stroke: #ffffff; stroke-width: 1.5; stroke-linecap: square"/>
     </g>
     <g id="line2d_14">
      <g>
       <use xlink:href="#ma5a0672dde" x="70.55" y="144.392881" style="stroke: #000000; stroke-width: 1.2"/>
      </g>
     </g>
     <g id="text_8">
      <!-- 600 -->
      <g transform="translate(35.05 150.642256) scale(0.18 -0.18)">
       <use xlink:href="#TimesNewRomanPSMT-36"/>
       <use xlink:href="#TimesNewRomanPSMT-30" x="50"/>
       <use xlink:href="#TimesNewRomanPSMT-30" x="100"/>
      </g>
     </g>
    </g>
    <g id="ytick_4">
     <g id="line2d_15">
      <path d="M 70.55 41.192509 
L 565.2 41.192509 
" clip-path="url(#p8c6d6c8d20)" style="fill: none; stroke: #ffffff; stroke-width: 1.5; stroke-linecap: square"/>
     </g>
     <g id="line2d_16">
      <g>
       <use xlink:href="#ma5a0672dde" x="70.55" y="41.192509" style="stroke: #000000; stroke-width: 1.2"/>
      </g>
     </g>
     <g id="text_9">
      <!-- 900 -->
      <g transform="translate(35.05 47.441884) scale(0.18 -0.18)">
       <defs>
        <path id="TimesNewRomanPSMT-39" d="M 338 -88 
L 338 28 
Q 744 34 1094 217 
Q 1444 400 1770 856 
Q 2097 1313 2225 1859 
Q 1734 1544 1338 1544 
Q 891 1544 572 1889 
Q 253 2234 253 2806 
Q 253 3363 572 3797 
Q 956 4325 1575 4325 
Q 2097 4325 2469 3894 
Q 2925 3359 2925 2575 
Q 2925 1869 2578 1258 
Q 2231 647 1613 244 
Q 1109 -88 516 -88 
L 338 -88 
z
M 2275 2091 
Q 2331 2497 2331 2741 
Q 2331 3044 2228 3395 
Q 2125 3747 1936 3934 
Q 1747 4122 1506 4122 
Q 1228 4122 1018 3872 
Q 809 3622 809 3128 
Q 809 2469 1088 2097 
Q 1291 1828 1588 1828 
Q 1731 1828 1928 1897 
Q 2125 1966 2275 2091 
z
" transform="scale(0.015625)"/>
       </defs>
       <use xlink:href="#TimesNewRomanPSMT-39"/>
       <use xlink:href="#TimesNewRomanPSMT-30" x="50"/>
       <use xlink:href="#TimesNewRomanPSMT-30" x="100"/>
      </g>
     </g>
    </g>
    <g id="text_10">
     <!-- Cumulative Seg Points -->
     <g transform="translate(26.302813 292.522938) rotate(-90) scale(0.22 -0.22)">
      <defs>
       <path id="TimesNewRomanPS-BoldMT-43" d="M 4272 4334 
L 4272 2866 
L 4150 2866 
Q 4013 3441 3638 3747 
Q 3263 4053 2788 4053 
Q 2391 4053 2059 3825 
Q 1728 3597 1575 3228 
Q 1378 2756 1378 2178 
Q 1378 1609 1522 1142 
Q 1666 675 1972 436 
Q 2278 197 2766 197 
Q 3166 197 3498 372 
Q 3831 547 4200 975 
L 4200 609 
Q 3844 238 3458 70 
Q 3072 -97 2556 -97 
Q 1878 -97 1351 175 
Q 825 447 539 956 
Q 253 1466 253 2041 
Q 253 2647 570 3190 
Q 888 3734 1427 4034 
Q 1966 4334 2572 4334 
Q 3019 4334 3516 4141 
Q 3803 4028 3881 4028 
Q 3981 4028 4054 4101 
Q 4128 4175 4150 4334 
L 4272 4334 
z
" transform="scale(0.015625)"/>
       <path id="TimesNewRomanPS-BoldMT-75" d="M 3038 2922 
L 3038 634 
Q 3038 300 3100 217 
Q 3163 134 3353 113 
L 3353 0 
L 2163 0 
L 2163 391 
Q 1953 141 1743 26 
Q 1534 -88 1275 -88 
Q 1028 -88 836 64 
Q 644 216 578 419 
Q 513 622 513 1128 
L 513 2288 
Q 513 2619 452 2700 
Q 391 2781 197 2806 
L 197 2922 
L 1388 2922 
L 1388 925 
Q 1388 613 1417 522 
Q 1447 431 1511 384 
Q 1575 338 1659 338 
Q 1772 338 1863 397 
Q 1988 478 2163 725 
L 2163 2288 
Q 2163 2619 2102 2700 
Q 2041 2781 1847 2806 
L 1847 2922 
L 3038 2922 
z
" transform="scale(0.015625)"/>
       <path id="TimesNewRomanPS-BoldMT-6c" d="M 1359 4238 
L 1359 606 
Q 1359 297 1431 211 
Q 1503 125 1713 113 
L 1713 0 
L 134 0 
L 134 113 
Q 328 119 422 225 
Q 484 297 484 606 
L 484 3631 
Q 484 3938 412 4023 
Q 341 4109 134 4122 
L 134 4238 
L 1359 4238 
z
" transform="scale(0.015625)"/>
       <path id="TimesNewRomanPS-BoldMT-61" d="M 1828 431 
Q 1294 -41 869 -41 
Q 619 -41 453 123 
Q 288 288 288 534 
Q 288 869 575 1136 
Q 863 1403 1828 1847 
L 1828 2141 
Q 1828 2472 1792 2558 
Q 1756 2644 1656 2708 
Q 1556 2772 1431 2772 
Q 1228 2772 1097 2681 
Q 1016 2625 1016 2550 
Q 1016 2484 1103 2388 
Q 1222 2253 1222 2128 
Q 1222 1975 1108 1867 
Q 994 1759 809 1759 
Q 613 1759 480 1878 
Q 347 1997 347 2156 
Q 347 2381 525 2586 
Q 703 2791 1022 2900 
Q 1341 3009 1684 3009 
Q 2100 3009 2342 2832 
Q 2584 2656 2656 2450 
Q 2700 2319 2700 1847 
L 2700 713 
Q 2700 513 2715 461 
Q 2731 409 2762 384 
Q 2794 359 2834 359 
Q 2916 359 3000 475 
L 3094 400 
Q 2938 169 2770 64 
Q 2603 -41 2391 -41 
Q 2141 -41 2000 76 
Q 1859 194 1828 431 
z
M 1828 659 
L 1828 1638 
Q 1450 1416 1266 1163 
Q 1144 994 1144 822 
Q 1144 678 1247 569 
Q 1325 484 1466 484 
Q 1622 484 1828 659 
z
" transform="scale(0.015625)"/>
       <path id="TimesNewRomanPS-BoldMT-74" d="M 1375 3991 
L 1375 2922 
L 2069 2922 
L 2069 2613 
L 1375 2613 
L 1375 809 
Q 1375 556 1398 482 
Q 1422 409 1481 364 
Q 1541 319 1591 319 
Q 1794 319 1975 628 
L 2069 559 
Q 1816 -41 1247 -41 
Q 969 -41 776 114 
Q 584 269 531 459 
Q 500 566 500 1034 
L 500 2613 
L 119 2613 
L 119 2722 
Q 513 3000 789 3306 
Q 1066 3613 1272 3991 
L 1375 3991 
z
" transform="scale(0.015625)"/>
       <path id="TimesNewRomanPS-BoldMT-76" d="M 1534 -88 
L 550 2178 
Q 372 2588 272 2697 
Q 200 2778 59 2806 
L 59 2922 
L 1613 2922 
L 1613 2806 
Q 1466 2806 1413 2753 
Q 1338 2684 1338 2591 
Q 1338 2475 1475 2156 
L 1956 1059 
L 2341 2006 
Q 2506 2413 2506 2581 
Q 2506 2678 2436 2739 
Q 2366 2800 2188 2806 
L 2188 2922 
L 3144 2922 
L 3144 2806 
Q 3006 2788 2918 2703 
Q 2831 2619 2656 2206 
L 1681 -88 
L 1534 -88 
z
" transform="scale(0.015625)"/>
       <path id="TimesNewRomanPS-BoldMT-53" d="M 3006 4334 
L 3041 2922 
L 2913 2922 
Q 2822 3453 2467 3776 
Q 2113 4100 1700 4100 
Q 1381 4100 1195 3929 
Q 1009 3759 1009 3538 
Q 1009 3397 1075 3288 
Q 1166 3141 1366 2997 
Q 1513 2894 2044 2631 
Q 2788 2266 3047 1941 
Q 3303 1616 3303 1197 
Q 3303 666 2889 283 
Q 2475 -100 1838 -100 
Q 1638 -100 1459 -59 
Q 1281 -19 1013 94 
Q 863 156 766 156 
Q 684 156 593 93 
Q 503 31 447 -97 
L 331 -97 
L 331 1503 
L 447 1503 
Q 584 828 976 473 
Q 1369 119 1822 119 
Q 2172 119 2380 309 
Q 2588 500 2588 753 
Q 2588 903 2508 1043 
Q 2428 1184 2265 1311 
Q 2103 1438 1691 1641 
Q 1113 1925 859 2125 
Q 606 2325 470 2572 
Q 334 2819 334 3116 
Q 334 3622 706 3978 
Q 1078 4334 1644 4334 
Q 1850 4334 2044 4284 
Q 2191 4247 2402 4145 
Q 2613 4044 2697 4044 
Q 2778 4044 2825 4094 
Q 2872 4144 2913 4334 
L 3006 4334 
z
" transform="scale(0.015625)"/>
       <path id="TimesNewRomanPS-BoldMT-67" d="M 2091 2888 
L 3075 2888 
L 3075 2544 
L 2516 2544 
Q 2669 2391 2728 2266 
Q 2803 2097 2803 1913 
Q 2803 1600 2629 1370 
Q 2456 1141 2157 1011 
Q 1859 881 1628 881 
Q 1609 881 1253 897 
Q 1113 897 1017 805 
Q 922 713 922 584 
Q 922 472 1008 400 
Q 1094 328 1288 328 
L 1828 334 
Q 2484 334 2731 191 
Q 3084 -9 3084 -425 
Q 3084 -691 2921 -908 
Q 2759 -1125 2494 -1228 
Q 2091 -1381 1566 -1381 
Q 1172 -1381 847 -1304 
Q 522 -1228 381 -1092 
Q 241 -956 241 -806 
Q 241 -663 348 -548 
Q 456 -434 750 -356 
Q 344 -156 344 200 
Q 344 416 509 619 
Q 675 822 1034 972 
Q 616 1125 428 1375 
Q 241 1625 241 1953 
Q 241 2381 591 2695 
Q 941 3009 1491 3009 
Q 1781 3009 2091 2888 
z
M 1550 2816 
Q 1369 2816 1244 2633 
Q 1119 2450 1119 1875 
Q 1119 1409 1242 1236 
Q 1366 1063 1534 1063 
Q 1722 1063 1847 1234 
Q 1972 1406 1972 1903 
Q 1972 2463 1831 2666 
Q 1731 2816 1550 2816 
z
M 1366 -431 
Q 1047 -431 944 -484 
Q 766 -581 766 -747 
Q 766 -906 950 -1036 
Q 1134 -1166 1644 -1166 
Q 2078 -1166 2326 -1050 
Q 2575 -934 2575 -725 
Q 2575 -647 2528 -594 
Q 2444 -500 2273 -465 
Q 2103 -431 1366 -431 
z
" transform="scale(0.015625)"/>
       <path id="TimesNewRomanPS-BoldMT-50" d="M 1728 1919 
L 1728 744 
Q 1728 400 1770 311 
Q 1813 222 1920 169 
Q 2028 116 2316 116 
L 2316 0 
L 163 0 
L 163 116 
Q 456 116 561 170 
Q 666 225 708 312 
Q 750 400 750 744 
L 750 3494 
Q 750 3838 708 3927 
Q 666 4016 559 4069 
Q 453 4122 163 4122 
L 163 4238 
L 2009 4238 
Q 2922 4238 3319 3913 
Q 3716 3588 3716 3100 
Q 3716 2688 3459 2394 
Q 3203 2100 2753 1994 
Q 2450 1919 1728 1919 
z
M 1728 3994 
L 1728 2163 
Q 1831 2156 1884 2156 
Q 2266 2156 2472 2382 
Q 2678 2609 2678 3084 
Q 2678 3556 2472 3775 
Q 2266 3994 1856 3994 
L 1728 3994 
z
" transform="scale(0.015625)"/>
       <path id="TimesNewRomanPS-BoldMT-6f" d="M 1594 3009 
Q 1975 3009 2303 2812 
Q 2631 2616 2801 2253 
Q 2972 1891 2972 1459 
Q 2972 838 2656 419 
Q 2275 -88 1603 -88 
Q 944 -88 587 375 
Q 231 838 231 1447 
Q 231 2075 595 2542 
Q 959 3009 1594 3009 
z
M 1606 2788 
Q 1447 2788 1333 2667 
Q 1219 2547 1183 2192 
Q 1147 1838 1147 1206 
Q 1147 872 1191 581 
Q 1225 359 1337 243 
Q 1450 128 1594 128 
Q 1734 128 1828 206 
Q 1950 313 1991 503 
Q 2053 800 2053 1703 
Q 2053 2234 1993 2432 
Q 1934 2631 1819 2722 
Q 1738 2788 1606 2788 
z
" transform="scale(0.015625)"/>
       <path id="TimesNewRomanPS-BoldMT-6e" d="M 1409 2922 
L 1409 2544 
Q 1634 2788 1840 2898 
Q 2047 3009 2284 3009 
Q 2569 3009 2756 2851 
Q 2944 2694 3006 2459 
Q 3056 2281 3056 1775 
L 3056 638 
Q 3056 300 3117 217 
Q 3178 134 3372 113 
L 3372 0 
L 1894 0 
L 1894 113 
Q 2059 134 2131 250 
Q 2181 328 2181 638 
L 2181 1938 
Q 2181 2297 2153 2390 
Q 2125 2484 2058 2536 
Q 1991 2588 1909 2588 
Q 1641 2588 1409 2203 
L 1409 638 
Q 1409 309 1470 221 
Q 1531 134 1697 113 
L 1697 0 
L 219 0 
L 219 113 
Q 403 131 481 231 
Q 534 300 534 638 
L 534 2288 
Q 534 2619 473 2700 
Q 413 2781 219 2806 
L 219 2922 
L 1409 2922 
z
" transform="scale(0.015625)"/>
      </defs>
      <use xlink:href="#TimesNewRomanPS-BoldMT-43"/>
      <use xlink:href="#TimesNewRomanPS-BoldMT-75" x="72.216797"/>
      <use xlink:href="#TimesNewRomanPS-BoldMT-6d" x="127.832031"/>
      <use xlink:href="#TimesNewRomanPS-BoldMT-75" x="211.132812"/>
      <use xlink:href="#TimesNewRomanPS-BoldMT-6c" x="266.748047"/>
      <use xlink:href="#TimesNewRomanPS-BoldMT-61" x="294.53125"/>
      <use xlink:href="#TimesNewRomanPS-BoldMT-74" x="344.53125"/>
      <use xlink:href="#TimesNewRomanPS-BoldMT-69" x="377.832031"/>
      <use xlink:href="#TimesNewRomanPS-BoldMT-76" x="405.615234"/>
      <use xlink:href="#TimesNewRomanPS-BoldMT-65" x="455.615234"/>
      <use xlink:href="#TimesNewRomanPS-BoldMT-20" x="500"/>
      <use xlink:href="#TimesNewRomanPS-BoldMT-53" x="525"/>
      <use xlink:href="#TimesNewRomanPS-BoldMT-65" x="580.615234"/>
      <use xlink:href="#TimesNewRomanPS-BoldMT-67" x="625"/>
      <use xlink:href="#TimesNewRomanPS-BoldMT-20" x="675"/>
      <use xlink:href="#TimesNewRomanPS-BoldMT-50" x="700"/>
      <use xlink:href="#TimesNewRomanPS-BoldMT-6f" x="761.083984"/>
      <use xlink:href="#TimesNewRomanPS-BoldMT-69" x="811.083984"/>
      <use xlink:href="#TimesNewRomanPS-BoldMT-6e" x="838.867188"/>
      <use xlink:href="#TimesNewRomanPS-BoldMT-74" x="894.482422"/>
      <use xlink:href="#TimesNewRomanPS-BoldMT-73" x="927.783203"/>
     </g>
    </g>
   </g>
   <g id="patch_3">
    <path d="M 120.883978 361.578062 
L 294.509912 361.578062 
L 294.509912 10.8 
L 120.883978 10.8 
z
" clip-path="url(#p8c6d6c8d20)" style="fill: #4c78a8; opacity: 0.2; stroke: #4c78a8; stroke-linejoin: miter"/>
   </g>
   <g id="patch_4">
    <path d="M 207.994829 361.578062 
L 500.908756 361.578062 
L 500.908756 10.8 
L 207.994829 10.8 
z
" clip-path="url(#p8c6d6c8d20)" style="fill: #f58518; opacity: 0.2; stroke: #f58518; stroke-linejoin: miter"/>
   </g>
   <g id="patch_5">
    <path d="M 205.14258 361.578062 
L 521.302489 361.578062 
L 521.302489 10.8 
L 205.14258 10.8 
z
" clip-path="url(#p8c6d6c8d20)" style="fill: #54a24b; opacity: 0.2; stroke: #54a24b; stroke-linejoin: miter"/>
   </g>
   <g id="patch_6">
    <path d="M 237.671225 361.578062 
L 542.715909 361.578062 
L 542.715909 10.8 
L 237.671225 10.8 
z
" clip-path="url(#p8c6d6c8d20)" style="fill: #e45756; opacity: 0.2; stroke: #e45756; stroke-linejoin: miter"/>
   </g>
   <g id="line2d_17">
    <path d="M 93.034091 337.721577 
L 93.034091 330.497551 
L 97.16547 330.497551 
L 97.16547 323.961527 
L 100.931397 323.961527 
L 100.931397 315.361496 
L 104.730525 315.361496 
L 104.730525 304.697458 
L 108.540195 304.697458 
L 108.540195 292.657414 
L 112.628463 292.657414 
L 112.628463 283.369381 
L 116.856143 283.369381 
L 116.856143 272.705343 
L 120.883978 272.705343 
L 120.883978 251.721267 
L 133.68235 251.721267 
L 133.68235 236.241211 
L 143.558502 236.241211 
L 143.558502 215.257136 
L 151.280327 215.257136 
L 151.280327 209.409115 
L 159.076957 209.409115 
L 159.076957 189.801044 
L 164.705539 189.801044 
L 164.705539 177.072998 
L 175.190516 177.072998 
L 175.190516 161.592943 
L 185.118982 161.592943 
L 185.118982 148.520896 
L 195.033117 148.520896 
L 195.033117 135.79285 
L 204.119983 135.79285 
L 204.119983 112.744767 
L 212.592354 112.744767 
L 212.592354 101.736727 
L 221.680432 101.736727 
L 221.680432 94.1687 
L 230.879539 94.1687 
L 230.879539 84.880667 
L 240.365022 84.880667 
L 240.365022 73.528626 
L 249.949912 73.528626 
L 249.949912 60.456579 
L 259.325008 60.456579 
L 259.325008 48.072534 
L 268.315625 48.072534 
L 268.315625 35.68849 
L 277.232982 35.68849 
L 277.232982 26.744457 
L 284.915825 26.744457 
" clip-path="url(#p8c6d6c8d20)" style="fill: none; stroke: #4c78a8; stroke-width: 3; stroke-linecap: square"/>
   </g>
   <g id="line2d_18">
    <path d="M 104.478955 345.633605 
L 104.478955 338.75358 
L 118.130828 338.75358 
L 118.130828 334.281564 
L 130.637902 334.281564 
L 130.637902 328.777544 
L 143.833867 328.777544 
L 143.833867 320.865516 
L 158.195036 320.865516 
L 158.195036 314.329492 
L 174.688802 314.329492 
L 174.688802 307.105466 
L 190.914255 307.105466 
L 190.914255 300.225442 
L 207.994829 300.225442 
L 207.994829 275.113351 
L 243.075776 275.113351 
L 243.075776 263.76131 
L 265.579505 263.76131 
L 265.579505 252.40927 
L 288.194296 252.40927 
L 288.194296 238.64922 
L 309.835179 238.64922 
L 309.835179 218.697148 
L 329.403934 218.697148 
L 329.403934 199.433079 
L 349.234387 199.433079 
L 349.234387 185.673029 
L 370.428434 185.673029 
L 370.428434 166.064959 
L 392.314522 166.064959 
L 392.314522 145.768886 
L 414.839996 145.768886 
L 414.839996 121.688799 
L 434.348389 121.688799 
L 434.348389 115.840778 
L 451.430307 115.840778 
L 451.430307 110.680759 
L 465.850234 110.680759 
L 465.850234 102.080729 
L 481.486153 102.080729 
" clip-path="url(#p8c6d6c8d20)" style="fill: none; stroke: #f58518; stroke-width: 3; stroke-linecap: square"/>
   </g>
   <g id="line2d_19">
    <path d="M 104.541337 345.633605 
L 104.541337 338.75358 
L 118.482288 338.75358 
L 118.482288 334.281564 
L 131.118597 334.281564 
L 131.118597 328.777544 
L 144.412136 328.777544 
L 144.412136 320.865516 
L 158.694793 320.865516 
L 158.694793 312.265485 
L 174.290365 312.265485 
L 174.290365 306.761465 
L 190.118593 306.761465 
L 190.118593 301.945448 
L 205.14258 301.945448 
L 205.14258 276.833357 
L 238.422744 276.833357 
L 238.422744 265.137315 
L 261.947763 265.137315 
L 261.947763 252.753271 
L 285.239618 252.753271 
L 285.239618 239.337223 
L 307.492155 239.337223 
L 307.492155 225.921174 
L 327.358148 225.921174 
L 327.358148 206.313104 
L 346.873212 206.313104 
L 346.873212 195.993067 
L 367.770981 195.993067 
L 367.770981 173.632986 
L 388.85752 173.632986 
L 388.85752 152.992912 
L 409.960737 152.992912 
L 409.960737 130.976833 
L 428.952842 130.976833 
L 428.952842 113.776771 
L 445.320539 113.776771 
L 445.320539 99.328719 
L 459.138582 99.328719 
" clip-path="url(#p8c6d6c8d20)" style="fill: none; stroke: #54a24b; stroke-width: 3; stroke-linecap: square"/>
   </g>
   <g id="line2d_20">
    <path d="M 106.936929 345.633605 
L 106.936929 338.75358 
L 122.170858 338.75358 
L 122.170858 334.281564 
L 136.49622 334.281564 
L 136.49622 328.777544 
L 152.461608 328.777544 
L 152.461608 320.865516 
L 171.875681 320.865516 
L 171.875681 311.921484 
L 193.699181 311.921484 
L 193.699181 304.353457 
L 215.273758 304.353457 
L 215.273758 297.817433 
L 237.671225 297.817433 
L 237.671225 272.705343 
L 270.394935 272.705343 
L 270.394935 258.601292 
L 298.585934 258.601292 
L 298.585934 244.497241 
L 322.438576 244.497241 
L 322.438576 227.985182 
L 343.47912 227.985182 
L 343.47912 200.465083 
L 363.542488 200.465083 
L 363.542488 185.329028 
L 383.946783 185.329028 
L 383.946783 173.632986 
L 405.749349 173.632986 
L 405.749349 154.712918 
L 427.415677 154.712918 
L 427.415677 141.29687 
L 448.381761 141.29687 
L 448.381761 127.192819 
L 467.478016 127.192819 
L 467.478016 111.712763 
L 483.57692 111.712763 
L 483.57692 100.360722 
L 496.714921 100.360722 
" clip-path="url(#p8c6d6c8d20)" style="fill: none; stroke: #e45756; stroke-width: 3; stroke-linecap: square"/>
   </g>
   <g id="LineCollection_1">
    <path d="M 284.915825 26.744457 
L 565.2 26.744457 
" clip-path="url(#p8c6d6c8d20)" style="fill: none; stroke: #4c78a8; stroke-width: 3"/>
   </g>
   <g id="LineCollection_2">
    <path d="M 481.486153 102.080729 
L 565.2 102.080729 
" clip-path="url(#p8c6d6c8d20)" style="fill: none; stroke: #f58518; stroke-width: 3"/>
   </g>
   <g id="LineCollection_3">
    <path d="M 459.138582 99.328719 
L 565.2 99.328719 
" clip-path="url(#p8c6d6c8d20)" style="fill: none; stroke: #54a24b; stroke-width: 3"/>
   </g>
   <g id="LineCollection_4">
    <path d="M 496.714921 100.360722 
L 565.2 100.360722 
" clip-path="url(#p8c6d6c8d20)" style="fill: none; stroke: #e45756; stroke-width: 3"/>
   </g>
   <g id="legend_1">
    <g id="patch_7">
     <path d="M 77.55 104.19625 
L 210.020938 104.19625 
Q 212.020938 104.19625 212.020938 102.19625 
L 212.020938 17.8 
Q 212.020938 15.8 210.020938 15.8 
L 77.55 15.8 
Q 75.55 15.8 75.55 17.8 
L 75.55 102.19625 
Q 75.55 104.19625 77.55 104.19625 
z
" style="fill: #ebebeb; opacity: 0.8; stroke: #cccccc; stroke-linejoin: miter"/>
    </g>
    <g id="line2d_21">
     <path d="M 79.55 28.79875 
L 79.55 28.79875 
L 89.55 28.79875 
L 89.55 28.79875 
L 99.55 28.79875 
" style="fill: none; stroke: #4c78a8; stroke-width: 3; stroke-linecap: square"/>
    </g>
    <g id="text_11">
     <!-- PAEAR(Full) -->
     <g transform="translate(107.55 32.29875) scale(0.18 -0.18)">
      <defs>
       <path id="TimesNewRomanPSMT-50" d="M 1313 1984 
L 1313 750 
Q 1313 350 1400 253 
Q 1519 116 1759 116 
L 1922 116 
L 1922 0 
L 106 0 
L 106 116 
L 266 116 
Q 534 116 650 291 
Q 713 388 713 750 
L 713 3488 
Q 713 3888 628 3984 
Q 506 4122 266 4122 
L 106 4122 
L 106 4238 
L 1659 4238 
Q 2228 4238 2556 4120 
Q 2884 4003 3109 3725 
Q 3334 3447 3334 3066 
Q 3334 2547 2992 2222 
Q 2650 1897 2025 1897 
Q 1872 1897 1694 1919 
Q 1516 1941 1313 1984 
z
M 1313 2163 
Q 1478 2131 1606 2115 
Q 1734 2100 1825 2100 
Q 2150 2100 2386 2351 
Q 2622 2603 2622 3003 
Q 2622 3278 2509 3514 
Q 2397 3750 2190 3867 
Q 1984 3984 1722 3984 
Q 1563 3984 1313 3925 
L 1313 2163 
z
" transform="scale(0.015625)"/>
       <path id="TimesNewRomanPSMT-41" d="M 2928 1419 
L 1288 1419 
L 1000 750 
Q 894 503 894 381 
Q 894 284 986 211 
Q 1078 138 1384 116 
L 1384 0 
L 50 0 
L 50 116 
Q 316 163 394 238 
Q 553 388 747 847 
L 2238 4334 
L 2347 4334 
L 3822 809 
Q 4000 384 4145 257 
Q 4291 131 4550 116 
L 4550 0 
L 2878 0 
L 2878 116 
Q 3131 128 3220 200 
Q 3309 272 3309 375 
Q 3309 513 3184 809 
L 2928 1419 
z
M 2841 1650 
L 2122 3363 
L 1384 1650 
L 2841 1650 
z
" transform="scale(0.015625)"/>
       <path id="TimesNewRomanPSMT-45" d="M 1338 4006 
L 1338 2331 
L 2269 2331 
Q 2631 2331 2753 2441 
Q 2916 2584 2934 2947 
L 3050 2947 
L 3050 1472 
L 2934 1472 
Q 2891 1781 2847 1869 
Q 2791 1978 2662 2040 
Q 2534 2103 2269 2103 
L 1338 2103 
L 1338 706 
Q 1338 425 1363 364 
Q 1388 303 1450 267 
Q 1513 231 1688 231 
L 2406 231 
Q 2766 231 2928 281 
Q 3091 331 3241 478 
Q 3434 672 3638 1063 
L 3763 1063 
L 3397 0 
L 131 0 
L 131 116 
L 281 116 
Q 431 116 566 188 
Q 666 238 702 338 
Q 738 438 738 747 
L 738 3500 
Q 738 3903 656 3997 
Q 544 4122 281 4122 
L 131 4122 
L 131 4238 
L 3397 4238 
L 3444 3309 
L 3322 3309 
Q 3256 3644 3176 3769 
Q 3097 3894 2941 3959 
Q 2816 4006 2500 4006 
L 1338 4006 
z
" transform="scale(0.015625)"/>
       <path id="TimesNewRomanPSMT-52" d="M 4325 0 
L 3194 0 
L 1759 1981 
Q 1600 1975 1500 1975 
Q 1459 1975 1412 1976 
Q 1366 1978 1316 1981 
L 1316 750 
Q 1316 350 1403 253 
Q 1522 116 1759 116 
L 1925 116 
L 1925 0 
L 109 0 
L 109 116 
L 269 116 
Q 538 116 653 291 
Q 719 388 719 750 
L 719 3488 
Q 719 3888 631 3984 
Q 509 4122 269 4122 
L 109 4122 
L 109 4238 
L 1653 4238 
Q 2328 4238 2648 4139 
Q 2969 4041 3192 3777 
Q 3416 3513 3416 3147 
Q 3416 2756 3161 2468 
Q 2906 2181 2372 2063 
L 3247 847 
Q 3547 428 3762 290 
Q 3978 153 4325 116 
L 4325 0 
z
M 1316 2178 
Q 1375 2178 1419 2176 
Q 1463 2175 1491 2175 
Q 2097 2175 2405 2437 
Q 2713 2700 2713 3106 
Q 2713 3503 2464 3751 
Q 2216 4000 1806 4000 
Q 1625 4000 1316 3941 
L 1316 2178 
z
" transform="scale(0.015625)"/>
       <path id="TimesNewRomanPSMT-28" d="M 1988 -1253 
L 1988 -1369 
Q 1516 -1131 1200 -813 
Q 750 -359 506 256 
Q 263 872 263 1534 
Q 263 2503 741 3301 
Q 1219 4100 1988 4444 
L 1988 4313 
Q 1603 4100 1356 3731 
Q 1109 3363 987 2797 
Q 866 2231 866 1616 
Q 866 947 969 400 
Q 1050 -31 1165 -292 
Q 1281 -553 1476 -793 
Q 1672 -1034 1988 -1253 
z
" transform="scale(0.015625)"/>
       <path id="TimesNewRomanPSMT-46" d="M 1309 4006 
L 1309 2341 
L 2081 2341 
Q 2347 2341 2470 2458 
Q 2594 2575 2634 2922 
L 2750 2922 
L 2750 1488 
L 2634 1488 
Q 2631 1734 2570 1850 
Q 2509 1966 2401 2023 
Q 2294 2081 2081 2081 
L 1309 2081 
L 1309 750 
Q 1309 428 1350 325 
Q 1381 247 1481 191 
Q 1619 116 1769 116 
L 1922 116 
L 1922 0 
L 103 0 
L 103 116 
L 253 116 
Q 516 116 634 269 
Q 709 369 709 750 
L 709 3488 
Q 709 3809 669 3913 
Q 638 3991 541 4047 
Q 406 4122 253 4122 
L 103 4122 
L 103 4238 
L 3256 4238 
L 3297 3306 
L 3188 3306 
Q 3106 3603 2998 3742 
Q 2891 3881 2733 3943 
Q 2575 4006 2244 4006 
L 1309 4006 
z
" transform="scale(0.015625)"/>
       <path id="TimesNewRomanPSMT-75" d="M 2709 2863 
L 2709 1128 
Q 2709 631 2732 520 
Q 2756 409 2807 365 
Q 2859 322 2928 322 
Q 3025 322 3147 375 
L 3191 266 
L 2334 -88 
L 2194 -88 
L 2194 519 
Q 1825 119 1631 15 
Q 1438 -88 1222 -88 
Q 981 -88 804 51 
Q 628 191 559 409 
Q 491 628 491 1028 
L 491 2306 
Q 491 2509 447 2587 
Q 403 2666 317 2708 
Q 231 2750 6 2747 
L 6 2863 
L 1009 2863 
L 1009 947 
Q 1009 547 1148 422 
Q 1288 297 1484 297 
Q 1619 297 1789 381 
Q 1959 466 2194 703 
L 2194 2325 
Q 2194 2569 2105 2655 
Q 2016 2741 1734 2747 
L 1734 2863 
L 2709 2863 
z
" transform="scale(0.015625)"/>
       <path id="TimesNewRomanPSMT-6c" d="M 1184 4444 
L 1184 647 
Q 1184 378 1223 290 
Q 1263 203 1344 158 
Q 1425 113 1647 113 
L 1647 0 
L 244 0 
L 244 113 
Q 441 113 512 153 
Q 584 194 625 287 
Q 666 381 666 647 
L 666 3247 
Q 666 3731 644 3842 
Q 622 3953 573 3993 
Q 525 4034 450 4034 
Q 369 4034 244 3984 
L 191 4094 
L 1044 4444 
L 1184 4444 
z
" transform="scale(0.015625)"/>
       <path id="TimesNewRomanPSMT-29" d="M 144 4313 
L 144 4444 
Q 619 4209 934 3891 
Q 1381 3434 1625 2820 
Q 1869 2206 1869 1541 
Q 1869 572 1392 -226 
Q 916 -1025 144 -1369 
L 144 -1253 
Q 528 -1038 776 -670 
Q 1025 -303 1145 264 
Q 1266 831 1266 1447 
Q 1266 2113 1163 2663 
Q 1084 3094 967 3353 
Q 850 3613 656 3853 
Q 463 4094 144 4313 
z
" transform="scale(0.015625)"/>
      </defs>
      <use xlink:href="#TimesNewRomanPSMT-50"/>
      <use xlink:href="#TimesNewRomanPSMT-41" x="46.490234"/>
      <use xlink:href="#TimesNewRomanPSMT-45" x="118.707031"/>
      <use xlink:href="#TimesNewRomanPSMT-41" x="179.791016"/>
      <use xlink:href="#TimesNewRomanPSMT-52" x="252.007812"/>
      <use xlink:href="#TimesNewRomanPSMT-28" x="318.707031"/>
      <use xlink:href="#TimesNewRomanPSMT-46" x="352.007812"/>
      <use xlink:href="#TimesNewRomanPSMT-75" x="407.623047"/>
      <use xlink:href="#TimesNewRomanPSMT-6c" x="457.623047"/>
      <use xlink:href="#TimesNewRomanPSMT-6c" x="485.40625"/>
      <use xlink:href="#TimesNewRomanPSMT-29" x="513.189453"/>
     </g>
    </g>
    <g id="line2d_22">
     <path d="M 79.55 50.147813 
L 79.55 50.147813 
L 89.55 50.147813 
L 89.55 50.147813 
L 99.55 50.147813 
" style="fill: none; stroke: #f58518; stroke-width: 3; stroke-linecap: square"/>
    </g>
    <g id="text_12">
     <!-- w/o Model -->
     <g transform="translate(107.55 53.647813) scale(0.18 -0.18)">
      <defs>
       <path id="TimesNewRomanPSMT-77" d="M 41 2863 
L 1241 2863 
L 1241 2747 
Q 1075 2734 1023 2687 
Q 972 2641 972 2553 
Q 972 2456 1025 2319 
L 1638 672 
L 2253 2013 
L 2091 2434 
Q 2016 2622 1894 2694 
Q 1825 2738 1638 2747 
L 1638 2863 
L 3000 2863 
L 3000 2747 
Q 2775 2738 2681 2666 
Q 2619 2616 2619 2506 
Q 2619 2444 2644 2378 
L 3294 734 
L 3897 2319 
Q 3959 2488 3959 2588 
Q 3959 2647 3898 2694 
Q 3838 2741 3659 2747 
L 3659 2863 
L 4563 2863 
L 4563 2747 
Q 4291 2706 4163 2378 
L 3206 -88 
L 3078 -88 
L 2363 1741 
L 1528 -88 
L 1413 -88 
L 494 2319 
Q 403 2547 315 2626 
Q 228 2706 41 2747 
L 41 2863 
z
" transform="scale(0.015625)"/>
       <path id="TimesNewRomanPSMT-2f" d="M 1794 4444 
L 259 -88 
L 9 -88 
L 1544 4444 
L 1794 4444 
z
" transform="scale(0.015625)"/>
       <path id="TimesNewRomanPSMT-6f" d="M 1600 2947 
Q 2250 2947 2644 2453 
Q 2978 2031 2978 1484 
Q 2978 1100 2793 706 
Q 2609 313 2286 112 
Q 1963 -88 1566 -88 
Q 919 -88 538 428 
Q 216 863 216 1403 
Q 216 1797 411 2186 
Q 606 2575 925 2761 
Q 1244 2947 1600 2947 
z
M 1503 2744 
Q 1338 2744 1170 2645 
Q 1003 2547 900 2300 
Q 797 2053 797 1666 
Q 797 1041 1045 587 
Q 1294 134 1700 134 
Q 2003 134 2200 384 
Q 2397 634 2397 1244 
Q 2397 2006 2069 2444 
Q 1847 2744 1503 2744 
z
" transform="scale(0.015625)"/>
       <path id="TimesNewRomanPSMT-20" transform="scale(0.015625)"/>
       <path id="TimesNewRomanPSMT-4d" d="M 2619 0 
L 981 3566 
L 981 734 
Q 981 344 1066 247 
Q 1181 116 1431 116 
L 1581 116 
L 1581 0 
L 106 0 
L 106 116 
L 256 116 
Q 525 116 638 278 
Q 706 378 706 734 
L 706 3503 
Q 706 3784 644 3909 
Q 600 4000 483 4061 
Q 366 4122 106 4122 
L 106 4238 
L 1306 4238 
L 2844 922 
L 4356 4238 
L 5556 4238 
L 5556 4122 
L 5409 4122 
Q 5138 4122 5025 3959 
Q 4956 3859 4956 3503 
L 4956 734 
Q 4956 344 5044 247 
Q 5159 116 5409 116 
L 5556 116 
L 5556 0 
L 3756 0 
L 3756 116 
L 3906 116 
Q 4178 116 4288 278 
Q 4356 378 4356 734 
L 4356 3566 
L 2722 0 
L 2619 0 
z
" transform="scale(0.015625)"/>
       <path id="TimesNewRomanPSMT-64" d="M 2222 322 
Q 2013 103 1813 7 
Q 1613 -88 1381 -88 
Q 913 -88 563 304 
Q 213 697 213 1313 
Q 213 1928 600 2439 
Q 988 2950 1597 2950 
Q 1975 2950 2222 2709 
L 2222 3238 
Q 2222 3728 2198 3840 
Q 2175 3953 2125 3993 
Q 2075 4034 2000 4034 
Q 1919 4034 1784 3984 
L 1744 4094 
L 2597 4444 
L 2738 4444 
L 2738 1134 
Q 2738 631 2761 520 
Q 2784 409 2836 365 
Q 2888 322 2956 322 
Q 3041 322 3181 375 
L 3216 266 
L 2366 -88 
L 2222 -88 
L 2222 322 
z
M 2222 541 
L 2222 2016 
Q 2203 2228 2109 2403 
Q 2016 2578 1861 2667 
Q 1706 2756 1559 2756 
Q 1284 2756 1069 2509 
Q 784 2184 784 1559 
Q 784 928 1059 592 
Q 1334 256 1672 256 
Q 1956 256 2222 541 
z
" transform="scale(0.015625)"/>
       <path id="TimesNewRomanPSMT-65" d="M 681 1784 
Q 678 1147 991 784 
Q 1303 422 1725 422 
Q 2006 422 2214 576 
Q 2422 731 2563 1106 
L 2659 1044 
Q 2594 616 2278 264 
Q 1963 -88 1488 -88 
Q 972 -88 605 314 
Q 238 716 238 1394 
Q 238 2128 614 2539 
Q 991 2950 1559 2950 
Q 2041 2950 2350 2633 
Q 2659 2316 2659 1784 
L 681 1784 
z
M 681 1966 
L 2006 1966 
Q 1991 2241 1941 2353 
Q 1863 2528 1708 2628 
Q 1553 2728 1384 2728 
Q 1125 2728 920 2526 
Q 716 2325 681 1966 
z
" transform="scale(0.015625)"/>
      </defs>
      <use xlink:href="#TimesNewRomanPSMT-77"/>
      <use xlink:href="#TimesNewRomanPSMT-2f" x="72.216797"/>
      <use xlink:href="#TimesNewRomanPSMT-6f" x="100"/>
      <use xlink:href="#TimesNewRomanPSMT-20" x="150"/>
      <use xlink:href="#TimesNewRomanPSMT-4d" x="175"/>
      <use xlink:href="#TimesNewRomanPSMT-6f" x="263.916016"/>
      <use xlink:href="#TimesNewRomanPSMT-64" x="313.916016"/>
      <use xlink:href="#TimesNewRomanPSMT-65" x="363.916016"/>
      <use xlink:href="#TimesNewRomanPSMT-6c" x="408.300781"/>
     </g>
    </g>
    <g id="line2d_23">
     <path d="M 79.55 71.496875 
L 79.55 71.496875 
L 89.55 71.496875 
L 89.55 71.496875 
L 99.55 71.496875 
" style="fill: none; stroke: #54a24b; stroke-width: 3; stroke-linecap: square"/>
    </g>
    <g id="text_13">
     <!-- w/o Guidance -->
     <g transform="translate(107.55 74.996875) scale(0.18 -0.18)">
      <defs>
       <path id="TimesNewRomanPSMT-47" d="M 3928 4334 
L 4038 2997 
L 3928 2997 
Q 3763 3497 3500 3750 
Q 3122 4116 2528 4116 
Q 1719 4116 1297 3475 
Q 944 2934 944 2188 
Q 944 1581 1178 1081 
Q 1413 581 1792 348 
Q 2172 116 2572 116 
Q 2806 116 3025 175 
Q 3244 234 3447 350 
L 3447 1575 
Q 3447 1894 3398 1992 
Q 3350 2091 3248 2142 
Q 3147 2194 2891 2194 
L 2891 2313 
L 4531 2313 
L 4531 2194 
L 4453 2194 
Q 4209 2194 4119 2031 
Q 4056 1916 4056 1575 
L 4056 278 
Q 3697 84 3347 -6 
Q 2997 -97 2569 -97 
Q 1341 -97 703 691 
Q 225 1281 225 2053 
Q 225 2613 494 3125 
Q 813 3734 1369 4063 
Q 1834 4334 2469 4334 
Q 2700 4334 2889 4296 
Q 3078 4259 3425 4131 
Q 3600 4066 3659 4066 
Q 3719 4066 3761 4120 
Q 3803 4175 3813 4334 
L 3928 4334 
z
" transform="scale(0.015625)"/>
       <path id="TimesNewRomanPSMT-69" d="M 928 4444 
Q 1059 4444 1151 4351 
Q 1244 4259 1244 4128 
Q 1244 3997 1151 3903 
Q 1059 3809 928 3809 
Q 797 3809 703 3903 
Q 609 3997 609 4128 
Q 609 4259 701 4351 
Q 794 4444 928 4444 
z
M 1188 2947 
L 1188 647 
Q 1188 378 1227 289 
Q 1266 200 1342 156 
Q 1419 113 1622 113 
L 1622 0 
L 231 0 
L 231 113 
Q 441 113 512 153 
Q 584 194 626 287 
Q 669 381 669 647 
L 669 1750 
Q 669 2216 641 2353 
Q 619 2453 572 2492 
Q 525 2531 444 2531 
Q 356 2531 231 2484 
L 188 2597 
L 1050 2947 
L 1188 2947 
z
" transform="scale(0.015625)"/>
       <path id="TimesNewRomanPSMT-61" d="M 1822 413 
Q 1381 72 1269 19 
Q 1100 -59 909 -59 
Q 613 -59 420 144 
Q 228 347 228 678 
Q 228 888 322 1041 
Q 450 1253 767 1440 
Q 1084 1628 1822 1897 
L 1822 2009 
Q 1822 2438 1686 2597 
Q 1550 2756 1291 2756 
Q 1094 2756 978 2650 
Q 859 2544 859 2406 
L 866 2225 
Q 866 2081 792 2003 
Q 719 1925 600 1925 
Q 484 1925 411 2006 
Q 338 2088 338 2228 
Q 338 2497 613 2722 
Q 888 2947 1384 2947 
Q 1766 2947 2009 2819 
Q 2194 2722 2281 2516 
Q 2338 2381 2338 1966 
L 2338 994 
Q 2338 584 2353 492 
Q 2369 400 2405 369 
Q 2441 338 2488 338 
Q 2538 338 2575 359 
Q 2641 400 2828 588 
L 2828 413 
Q 2478 -56 2159 -56 
Q 2006 -56 1915 50 
Q 1825 156 1822 413 
z
M 1822 616 
L 1822 1706 
Q 1350 1519 1213 1441 
Q 966 1303 859 1153 
Q 753 1003 753 825 
Q 753 600 887 451 
Q 1022 303 1197 303 
Q 1434 303 1822 616 
z
" transform="scale(0.015625)"/>
       <path id="TimesNewRomanPSMT-6e" d="M 1034 2341 
Q 1538 2947 1994 2947 
Q 2228 2947 2397 2830 
Q 2566 2713 2666 2444 
Q 2734 2256 2734 1869 
L 2734 647 
Q 2734 375 2778 278 
Q 2813 200 2889 156 
Q 2966 113 3172 113 
L 3172 0 
L 1756 0 
L 1756 113 
L 1816 113 
Q 2016 113 2095 173 
Q 2175 234 2206 353 
Q 2219 400 2219 647 
L 2219 1819 
Q 2219 2209 2117 2386 
Q 2016 2563 1775 2563 
Q 1403 2563 1034 2156 
L 1034 647 
Q 1034 356 1069 288 
Q 1113 197 1189 155 
Q 1266 113 1500 113 
L 1500 0 
L 84 0 
L 84 113 
L 147 113 
Q 366 113 442 223 
Q 519 334 519 647 
L 519 1709 
Q 519 2225 495 2337 
Q 472 2450 423 2490 
Q 375 2531 294 2531 
Q 206 2531 84 2484 
L 38 2597 
L 900 2947 
L 1034 2947 
L 1034 2341 
z
" transform="scale(0.015625)"/>
       <path id="TimesNewRomanPSMT-63" d="M 2631 1088 
Q 2516 522 2178 217 
Q 1841 -88 1431 -88 
Q 944 -88 581 321 
Q 219 731 219 1428 
Q 219 2103 620 2525 
Q 1022 2947 1584 2947 
Q 2006 2947 2278 2723 
Q 2550 2500 2550 2259 
Q 2550 2141 2473 2067 
Q 2397 1994 2259 1994 
Q 2075 1994 1981 2113 
Q 1928 2178 1911 2362 
Q 1894 2547 1784 2644 
Q 1675 2738 1481 2738 
Q 1169 2738 978 2506 
Q 725 2200 725 1697 
Q 725 1184 976 792 
Q 1228 400 1656 400 
Q 1963 400 2206 609 
Q 2378 753 2541 1131 
L 2631 1088 
z
" transform="scale(0.015625)"/>
      </defs>
      <use xlink:href="#TimesNewRomanPSMT-77"/>
      <use xlink:href="#TimesNewRomanPSMT-2f" x="72.216797"/>
      <use xlink:href="#TimesNewRomanPSMT-6f" x="100"/>
      <use xlink:href="#TimesNewRomanPSMT-20" x="150"/>
      <use xlink:href="#TimesNewRomanPSMT-47" x="175"/>
      <use xlink:href="#TimesNewRomanPSMT-75" x="247.216797"/>
      <use xlink:href="#TimesNewRomanPSMT-69" x="297.216797"/>
      <use xlink:href="#TimesNewRomanPSMT-64" x="325"/>
      <use xlink:href="#TimesNewRomanPSMT-61" x="375"/>
      <use xlink:href="#TimesNewRomanPSMT-6e" x="419.384766"/>
      <use xlink:href="#TimesNewRomanPSMT-63" x="469.384766"/>
      <use xlink:href="#TimesNewRomanPSMT-65" x="513.769531"/>
     </g>
    </g>
    <g id="line2d_24">
     <path d="M 79.55 92.845938 
L 79.55 92.845938 
L 89.55 92.845938 
L 89.55 92.845938 
L 99.55 92.845938 
" style="fill: none; stroke: #e45756; stroke-width: 3; stroke-linecap: square"/>
    </g>
    <g id="text_14">
     <!-- Baseline -->
     <g transform="translate(107.55 96.345938) scale(0.18 -0.18)">
      <defs>
       <path id="TimesNewRomanPSMT-42" d="M 2956 2163 
Q 3397 2069 3616 1863 
Q 3919 1575 3919 1159 
Q 3919 844 3719 555 
Q 3519 266 3170 133 
Q 2822 0 2106 0 
L 106 0 
L 106 116 
L 266 116 
Q 531 116 647 284 
Q 719 394 719 750 
L 719 3488 
Q 719 3881 628 3984 
Q 506 4122 266 4122 
L 106 4122 
L 106 4238 
L 1938 4238 
Q 2450 4238 2759 4163 
Q 3228 4050 3475 3764 
Q 3722 3478 3722 3106 
Q 3722 2788 3528 2536 
Q 3334 2284 2956 2163 
z
M 1319 2331 
Q 1434 2309 1582 2298 
Q 1731 2288 1909 2288 
Q 2366 2288 2595 2386 
Q 2825 2484 2947 2687 
Q 3069 2891 3069 3131 
Q 3069 3503 2766 3765 
Q 2463 4028 1881 4028 
Q 1569 4028 1319 3959 
L 1319 2331 
z
M 1319 306 
Q 1681 222 2034 222 
Q 2600 222 2897 476 
Q 3194 731 3194 1106 
Q 3194 1353 3059 1581 
Q 2925 1809 2622 1940 
Q 2319 2072 1872 2072 
Q 1678 2072 1540 2065 
Q 1403 2059 1319 2044 
L 1319 306 
z
" transform="scale(0.015625)"/>
       <path id="TimesNewRomanPSMT-73" d="M 2050 2947 
L 2050 1972 
L 1947 1972 
Q 1828 2431 1642 2597 
Q 1456 2763 1169 2763 
Q 950 2763 815 2647 
Q 681 2531 681 2391 
Q 681 2216 781 2091 
Q 878 1963 1175 1819 
L 1631 1597 
Q 2266 1288 2266 781 
Q 2266 391 1970 151 
Q 1675 -88 1309 -88 
Q 1047 -88 709 6 
Q 606 38 541 38 
Q 469 38 428 -44 
L 325 -44 
L 325 978 
L 428 978 
Q 516 541 762 319 
Q 1009 97 1316 97 
Q 1531 97 1667 223 
Q 1803 350 1803 528 
Q 1803 744 1651 891 
Q 1500 1038 1047 1263 
Q 594 1488 453 1669 
Q 313 1847 313 2119 
Q 313 2472 555 2709 
Q 797 2947 1181 2947 
Q 1350 2947 1591 2875 
Q 1750 2828 1803 2828 
Q 1853 2828 1881 2850 
Q 1909 2872 1947 2947 
L 2050 2947 
z
" transform="scale(0.015625)"/>
      </defs>
      <use xlink:href="#TimesNewRomanPSMT-42"/>
      <use xlink:href="#TimesNewRomanPSMT-61" x="66.699219"/>
      <use xlink:href="#TimesNewRomanPSMT-73" x="111.083984"/>
      <use xlink:href="#TimesNewRomanPSMT-65" x="150"/>
      <use xlink:href="#TimesNewRomanPSMT-6c" x="194.384766"/>
      <use xlink:href="#TimesNewRomanPSMT-69" x="222.167969"/>
      <use xlink:href="#TimesNewRomanPSMT-6e" x="249.951172"/>
      <use xlink:href="#TimesNewRomanPSMT-65" x="299.951172"/>
     </g>
    </g>
   </g>
  </g>
 </g>
 <defs>
  <clipPath id="p8c6d6c8d20">
   <rect x="70.55" y="10.8" width="494.65" height="350.778062"/>
  </clipPath>
 </defs>
</svg>
